{"title":"The.Interview.2014.BRRip.480p.x264.AAC-VYTO [P2PDL]","uid":11674219,"size":398752144,"categoryP":"video","categoryS":"movies","magnet":"?xt=urn:btih:e70ff38608644cf9273361ac0b1fb459cf9d157f&amp;dn=The.Interview.2014.BRRip.480p.x264.AAC-VYTO+%5BP2PDL%5D&amp;tr=udp%3A%2F%2Ftracker.openbittorrent.com%3A80&amp;tr=udp%3A%2F%2Fopen.demonii.com%3A1337&amp;tr=udp%3A%2F%2Ftracker.coppersurfer.tk%3A6969&amp;tr=udp%3A%2F%2Fexodus.desync.com%3A6969","seeders":3,"leechers":1,"uploader":"ValidusVyto","files":6,"time":1422789349,"description":"The.Interview.2014.BRRip.480p.x264.AAC-VYTO\n\n\nGenre: Action | Comedy\nIMDb: http://www.imdb.com/title/tt2788710/\n\nGeneral\nFormat                      : MPEG-4\nFile size                   : 376 MiB\nDuration                    : 1h 52mn\nOverall bit rate            : 469 \n\nVideo\nFormat                      : AVC\nBit rate                    : 434 Kbps\nWidth                       : 720 pixels\nHeight                      : 304 pixels\nDisplay aspect ratio        : 2.35:1\nFrame rate mode             : Constant\nFrame rate                  : 23.976 fps\nBit depth                   : 8 bits\nStream size                 : 348 MiB (92%)\nWriting library             : x264 core 142 r2491\n\nAudio\nFormat                      : AAC\nBit rate mode               : Variable\nBit rate                    : 32.0 Kbps\nChannel(s)                  : 2 channels\nChannel positions           : Front: L R \nSampling rate               : 48.0 KHz\nStream size                 : 25.7 MiB (7%)\nLanguage                    : English\n\nSubtitle                    : Yes(English)\nSource                      : 720p.BluRay.x264-SPARKS\n &lt;a href=&quot;\nhttp://someimage.com/A1i1g4g&quot; rel=&quot;nofollow&quot; target=&quot;_NEW&quot;&gt;\nhttp://someimage.com/A1i1g4g&lt;/a&gt; &lt;a href=&quot;\nhttp://someimage.com/W7p2lnr&quot; rel=&quot;nofollow&quot; target=&quot;_NEW&quot;&gt;\nhttp://someimage.com/W7p2lnr&lt;/a&gt; &lt;a href=&quot;\nhttp://someimage.com/c9QefAI&quot; rel=&quot;nofollow&quot; target=&quot;_NEW&quot;&gt;\nhttp://someimage.com/c9QefAI&lt;/a&gt; &lt;a href=&quot;\nhttp://someimage.com/ymP4RTG&quot; rel=&quot;nofollow&quot; target=&quot;_NEW&quot;&gt;\nhttp://someimage.com/ymP4RTG&lt;/a&gt; &lt;a href=&quot;\nhttp://someimage.com/YPNdQkW&quot; rel=&quot;nofollow&quot; target=&quot;_NEW&quot;&gt;\nhttp://someimage.com/YPNdQkW&lt;/a&gt; &lt;a href=&quot;\nhttp://someimage.com/hvrXFut&quot; rel=&quot;nofollow&quot; target=&quot;_NEW&quot;&gt;\nhttp://someimage.com/hvrXFut&lt;/a&gt; &lt;a href=&quot;\nhttp://someimage.com/TW1zGQM&quot; rel=&quot;nofollow&quot; target=&quot;_NEW&quot;&gt;\nhttp://someimage.com/TW1zGQM&lt;/a&gt; &lt;a href=&quot;\nhttp://someimage.com/7lfh28I&quot; rel=&quot;nofollow&quot; target=&quot;_NEW&quot;&gt;\nhttp://someimage.com/7lfh28I&lt;/a&gt; &lt;a href=&quot;\nhttp://someimage.com/NIekKjS&quot; rel=&quot;nofollow&quot; target=&quot;_NEW&quot;&gt;\nhttp://someimage.com/NIekKjS&lt;/a&gt; &lt;a href=&quot;\nhttp://someimage.com/IIlC9XW&quot; rel=&quot;nofollow&quot; target=&quot;_NEW&quot;&gt;\nhttp://someimage.com/IIlC9XW&lt;/a&gt; &lt;a href=&quot;\nhttp://someimage.com/yN5cWVy&quot; rel=&quot;nofollow&quot; target=&quot;_NEW&quot;&gt;\nhttp://someimage.com/yN5cWVy&lt;/a&gt; &lt;a href=&quot;\nhttp://someimage.com/03CAhbp&quot; rel=&quot;nofollow&quot; target=&quot;_NEW&quot;&gt;\nhttp://someimage.com/03CAhbp&lt;/a&gt;\n\n----------------------------------------------------------------------------------------------------\n\n\nEncoder Notes: Looking For Early Access To Anything You Can Provide DVDScr, R5, DVDR, BluRay, Direct\nAudio, Music Releases and Seedboxes. We require dedicated servers, so as to do more \nand fast releases of movies.\nIf You Got anything to offer please contact us.\n\n\nSupport us by donating LC - LezHMTo2cYaiztCCcWxB4cNFVNVpWW3GSx","torrent":{"xt":"urn:btih:e70ff38608644cf9273361ac0b1fb459cf9d157f","amp;dn":"The.Interview.2014.BRRip.480p.x264.AAC-VYTO+%5BP2PDL%5D","amp;tr":["udp%3A%2F%2Ftracker.openbittorrent.com%3A80","udp%3A%2F%2Fopen.demonii.com%3A1337","udp%3A%2F%2Ftracker.coppersurfer.tk%3A6969","udp%3A%2F%2Fexodus.desync.com%3A6969"],"infoHash":"e70ff38608644cf9273361ac0b1fb459cf9d157f","infoHashBuffer":{"type":"Buffer","data":[231,15,243,134,8,100,76,249,39,51,97,172,11,31,180,89,207,157,21,127]},"announce":[],"urlList":[]}}